PathFileType	4	(X/Y/Z)	D:\Long Term Storage\D'Arcy Smith\Coord17.trc
DataRate	CameraRate	NumFrames	NumMarkers	Units	OrigDataRate	OrigDataStartFrame	OrigNumFrames
120.00	120.00	      87	4	mm	120.00	3640	      4853
Frame#	Time	M1			M2			M3			M4			
		X1	Y1	Z1	X2	Y2	Z2	X3	Y3	Z3	X4	Y4	Z4	

3640	30.325	522.47644	475.77527	-20.86963	1018.67883	439.90802	-13.32691							
3641	30.333	524.17401	472.92953	-18.74494	1019.17358	442.73004	-16.63054							
3642	30.342	526.35046	469.87225	-16.19196	1019.59869	444.93085	-19.27614							
3643	30.350	527.73645	465.90680	-13.47580	1020.00873	446.95938	-21.62950							
3644	30.358	529.15015	461.54813	-10.75056	1020.17139	448.23724	-23.43201							
3645	30.367	530.77161	456.33582	-7.52095	1020.25757	449.01392	-24.56351							
3646	30.375	532.29980	450.94498	-3.76551	1020.20813	449.33051	-25.24168							
3647	30.383	533.99127	444.90570	0.38016	1020.13190	449.18073	-25.46277							
3648	30.392	535.85858	437.85657	5.28698	1019.93762	448.56903	-25.10613							
3649	30.400	537.73315	430.91534	10.61170	1019.56128	447.47385	-23.65276							
3650	30.408	539.55310	423.94217	16.11858	1019.18365	445.68015	-22.86483							
3651	30.417	541.48364	416.16464	22.33642	1018.65588	443.51608	-20.94390							
3652	30.425	543.71442	407.98172	29.24088	1017.96509	440.72223	-17.83582							
3653	30.433	546.33844	399.60245	37.06398	1017.40607	437.57831	-15.63096							
3654	30.442	547.68903	390.80267	45.30079	1016.60883	433.95056	-12.01445							
3655	30.450	550.62988	381.87424	54.55146	1015.08551	429.59384	-7.12232							
3656	30.458	552.80408	373.12204	64.41280	1014.24506	425.01059	-3.43185							
3657	30.467	554.76740	364.33771	74.99354	1013.07391	419.97260	1.72189							
3658	30.475	557.17670	355.03345	88.01168	1012.06696	414.66663	7.29738							
3659	30.483	558.94586	346.36993	98.64518	1010.73187	408.90280	13.61479							
3660	30.492	560.85065	338.17557	111.45000	1009.40240	403.03168	20.47165							
3661	30.500	562.75104	330.37292	124.92826	1007.81689	396.89645	28.00468							
3662	30.508	564.46991	322.87476	139.16144	1006.27570	390.80801	36.06583							
3663	30.517	566.41309	315.77972	153.47386	1004.61316	384.41907	44.65287							
3664	30.525	568.77814	309.71945	170.87442	1002.95380	378.13547	53.94817							
3665	30.533	570.56781	304.01294	186.44164	1001.13580	371.92941	63.73543							
3666	30.542	572.04663	298.84091	202.98293	999.46350	365.81165	73.88714							
3667	30.550	573.63104	294.63861	219.85912	997.58118	359.97903	84.38849							
3668	30.558	574.61981	291.14523	237.16850	995.70453	353.58826	96.41611							
3669	30.567	575.70203	287.95700	254.65851	993.56964	347.99933	109.96438							
3670	30.575	576.58630	286.30676	271.79437	991.57642	342.71759	122.03843							
3671	30.583	577.27344	284.76492	287.94760	989.46497	337.89664	134.41249							
3672	30.592	577.99054	285.46304	305.47348	987.40057	333.49963	147.61340							
3673	30.600	578.72125	286.30225	322.61145	984.69226	329.16608	160.94524							
3674	30.608	579.00970	287.38736	338.67084	982.90820	326.22125	174.04750							
3675	30.617	579.10992	289.09698	354.15500	981.15179	322.92200	187.70908							
3676	30.625	579.25226	291.08206	368.63104	978.92212	320.65604	201.23305							
3677	30.633	578.98364	294.57596	383.78012	976.78156	318.76221	215.25781							
3678	30.642	579.04102	298.05008	397.42151	975.81677	317.14124	229.20271							
3679	30.650	579.02826	301.79211	411.11026	973.74963	316.22812	243.70723							
3680	30.658	579.14331	305.78860	424.00537	971.69855	315.96091	257.26733							
3681	30.667	579.06378	310.20255	436.39685	969.76056	316.00824	270.76746							
3682	30.675	579.74945	315.34146	448.99680	968.06732	316.70993	283.94870							
3683	30.683	579.48022	320.37222	460.00763	966.41431	317.66489	297.12668							
3684	30.692	579.37866	325.63434	469.84445	964.87390	319.35867	309.85529							
3685	30.700	579.69916	331.65152	483.65109	963.18848	321.31967	322.24466							
3686	30.708	579.41089	337.52243	493.51633	961.41272	323.78772	334.60318							
3687	30.717	579.26025	343.51248	502.56656	959.13995	327.09708	346.08029							
3688	30.725	578.72565	349.51404	511.00284	957.60565	330.23007	357.52295							
3689	30.733	578.25806	355.47964	518.72015	956.16833	333.88699	368.50763							
3690	30.742	577.68732	361.69168	525.82849	954.83246	337.59775	378.94144							
3691	30.750	577.03485	367.47577	532.23907	953.64764	341.43564	389.02075							
3692	30.758	576.49738	372.99838	538.02612	953.35883	345.24960	398.77374							
3693	30.767	575.74463	378.15781	543.27972	951.70520	349.75055	406.81055							
3694	30.775	575.02454	383.45190	547.97162	950.74121	353.83743	414.98911							
3695	30.783	574.50269	387.89139	551.55841	950.00153	357.83997	422.63193							
3696	30.792	573.91254	391.31671	554.64752	949.35919	362.02191	429.21045							
3697	30.800	573.16101	394.81769	556.85968	948.77570	366.32971	436.32220							
3698	30.808	572.49548	397.51483	558.68494	948.11334	370.08459	442.30432							
3699	30.817	571.82233	400.20633	560.11664	946.97156	373.40515	448.33191							
3700	30.825	571.29816	402.24854	561.37341	946.50671	376.87671	452.86017							
3701	30.833	571.07300	402.63760	561.23743	945.67126	379.20087	457.60739							
3702	30.842	570.55042	403.19495	560.91846	945.88751	381.87939	460.59659							
3703	30.850	570.07660	403.09921	560.07220	945.71265	384.21640	463.76108							
3704	30.858	569.63770	402.44891	558.86884	945.09357	385.95126	466.51840							
3705	30.867	568.67938	401.85941	557.36432	944.98364	387.56805	468.27493							
3706	30.875	568.47565	399.53821	554.75842	944.93787	388.64883	469.61914							
3707	30.883	567.75708	397.77634	552.20166	944.90753	389.39899	470.61710							
3708	30.892	567.21698	394.81573	548.49750	944.93854	389.66190	470.85434							
3709	30.900	566.80170	391.88498	544.83337	944.98755	389.55960	470.53537							
3710	30.908	566.08289	388.58673	540.45380	945.09210	389.08966	469.85046							
3711	30.917	565.84851	384.43469	535.53625	945.64252	388.30615	468.18283							
3712	30.925	565.35449	380.44403	530.01355	945.52698	386.98477	466.66638							
3713	30.933	565.10748	376.09244	524.38306	945.97540	385.29187	464.22781							
3714	30.942	564.68048	371.67688	517.66235	946.46008	383.29886	461.42441							
3715	30.950	564.36212	367.03885	510.55682	946.94049	380.90555	458.25421							
3716	30.958	564.00354	362.39316	502.70016	947.60559	378.23096	454.33646							
3717	30.967	563.64368	357.80655	494.23746	948.78015	375.42325	449.37717							
3718	30.975	563.35046	352.86978	485.52127	949.63495	372.36414	444.52466							
3719	30.983	562.53253	347.94214	474.86191	950.09369	369.09796	439.59070							
3720	30.992	561.36487	342.77100	461.07043	951.61536	365.66785	432.34778							
3721	31.000	560.75092	337.86404	449.50717	952.30078	362.88846	426.20969							
3722	31.008	560.13593	332.87802	437.16785	953.74036	359.47235	419.41519							
3723	31.017	559.64893	328.17377	424.31213	955.41071	356.48050	411.57755							
3724	31.025	559.04559	323.58871	410.59058	956.03040	353.46252	403.80420							
3725	31.033	558.43842	319.26868	395.97275	957.89679	350.57422	394.90714							
3726	31.042	558.17212	314.48203	380.55118	959.52484	347.86407	385.49930							
